<?xml version="1.0" encoding="UTF-8"?>
<svg width="512px" height="512px" viewBox="0 0 512 512" version="1.1" xmlns="http://www.w3.org/2000/svg" xmlns:xlink="http://www.w3.org/1999/xlink">
    <title>Icon</title>
    <defs>
        <linearGradient x1="99.5287915%" y1="0.471208479%" x2="0.69400814%" y2="99.3059919%" id="linearGradient-1">
            <stop stop-color="#FF9942" offset="0%"></stop>
            <stop stop-color="#FF4700" offset="100%"></stop>
        </linearGradient>
        <path d="M253,140 C269.016258,140 282,152.983742 282,169 C282,174.644991 280.387112,179.913272 277.59703,184.369147 L325.630853,232.40297 C330.086728,229.612888 335.355009,228 341,228 C357.016258,228 370,240.983742 370,257 C370,273.016258 357.016258,286 341,286 C335.876835,286 331.063953,284.671522 326.887047,282.340258 L278.340258,330.887047 C280.671522,335.063953 282,339.876835 282,345 C282,361.016258 269.016258,374 253,374 C236.983742,374 224,361.016258 224,345 C224,340.140256 225.195376,335.559707 227.308136,331.536346 L178.463654,282.691864 C174.440293,284.804624 169.859744,286 165,286 C148.983742,286 136,273.016258 136,257 C136,240.983742 148.983742,228 165,228 C170.384533,228 175.426316,229.467486 179.747223,232.02433 L228.02433,183.747223 C225.467486,179.426316 224,174.384533 224,169 C224,152.983742 236.983742,140 253,140 Z M241.56828,195.659835 L191.659835,245.56828 C193.165938,249.076033 194,252.940614 194,257 C194,261.594886 192.93137,265.940181 191.029083,269.800911 L240.199089,318.970917 C241.420156,318.369264 242.689694,317.851004 244.00027,317.423571 L244.00027,284.576429 C232.389724,280.789746 224,269.874636 224,257 C224,240.983742 236.983742,228 253,228 C269.016258,228 282,240.983742 282,257 C282,269.874267 273.610757,280.78912 262.000728,284.576104 L262.000728,317.423896 C263.070565,317.772858 264.113054,318.182344 265.12415,318.64831 L314.64831,269.12415 C312.948238,265.435177 312,261.328325 312,257 C312,253.211889 312.726312,249.593418 314.047273,246.276248 L263.723752,195.952727 C260.406582,197.273688 256.788111,198 253,198 C248.940614,198 245.076033,197.165938 241.56828,195.659835 Z" id="path-2"></path>
    </defs>
    <g id="Icon" stroke="none" stroke-width="1" fill="none" fill-rule="evenodd">
        <g id="Glyph">
            <rect id="background" fill="url(#linearGradient-1)" x="0" y="0" width="512" height="512" rx="81"></rect>
            <path d="M253,69 C362.904665,69 452,152.498894 452,255.5 C452,358.501106 362.904665,442 253,442 C214.064283,442 177.740259,431.520397 147.064111,413.406658 C140.437608,417.926869 131.103208,421.308831 119.065113,423.549046 C99.9044082,427.114736 84.9400541,424.682094 74.1720505,416.251122 C86.4773864,408.779172 93.9270486,400.742105 96.5210372,392.13992 C97.7781621,387.971043 98.4965814,381.673986 98.6762953,373.248751 C70.7453292,341.142771 54,300.154091 54,255.5 C54,152.498894 143.095335,69 253,69 Z" id="bubble" fill="#FFFFFF"></path>
            <g id="decentral">
                <use fill="#FFFFFF" xlink:href="#path-2"></use>
                <use fill="url(#linearGradient-1)" xlink:href="#path-2"></use>
            </g>
        </g>
    </g>
</svg>