<?xml version="1.0" encoding="UTF-8"?>
<svg width="125px" height="122px" viewBox="0 0 125 122" version="1.1" xmlns="http://www.w3.org/2000/svg" xmlns:xlink="http://www.w3.org/1999/xlink">
    <title>Phone</title>
    <defs>
        <circle id="path-1" cx="61.5" cy="61.5" r="57.5"></circle>
        <mask id="mask-2" maskContentUnits="userSpaceOnUse" maskUnits="objectBoundingBox" x="-2.7518797" y="-2.7518797" width="120.503759" height="120.503759">
            <rect x="1.2481203" y="1.2481203" width="120.503759" height="120.503759" fill="white"></rect>
            <use xlink:href="#path-1" fill="black"></use>
        </mask>
    </defs>
    <g id="Page-1" stroke="none" stroke-width="1" fill="none" fill-rule="evenodd">
        <g id="Phone">
            <path d="M51.236097,22.9323308 L72.8447853,22.9323308 C76.5984144,22.9323308 77.959571,23.3231615 79.3318416,24.0570599 C80.7041123,24.7909583 81.7810784,25.8679244 82.5149768,27.2401951 C83.2488752,28.6124657 83.6397059,29.9736223 83.6397059,33.7272514 L83.6397059,88.2727486 C83.6397059,92.0263777 83.2488752,93.3875343 82.5149768,94.7598049 C81.7810784,96.1320756 80.7041123,97.2090417 79.3318416,97.9429401 C77.959571,98.6768385 76.5984144,99.0676692 72.8447853,99.0676692 L51.236097,99.0676692 C47.482468,99.0676692 46.1213114,98.6768385 44.7490407,97.9429401 C43.37677,97.2090417 42.299804,96.1320756 41.5659056,94.7598049 C40.8320072,93.3875343 40.4411765,92.0263777 40.4411765,88.2727486 L40.4411765,33.7272514 C40.4411765,29.9736223 40.8320072,28.6124657 41.5659056,27.2401951 C42.299804,25.8679244 43.37677,24.7909583 44.7490407,24.0570599 C46.1213114,23.3231615 47.482468,22.9323308 51.236097,22.9323308 Z" id="Rectangle" fill="#3C3C3C"></path>
            <path d="M51.236097,22.9323308 L72.8447853,22.9323308 C76.5984144,22.9323308 77.959571,23.3231615 79.3318416,24.0570599 C80.7041123,24.7909583 81.7810784,25.8679244 82.5149768,27.2401951 C83.2488752,28.6124657 83.6397059,29.9736223 83.6397059,33.7272514 L83.6397059,88.2727486 C83.6397059,92.0263777 83.2488752,93.3875343 82.5149768,94.7598049 C81.7810784,96.1320756 80.7041123,97.2090417 79.3318416,97.9429401 C77.959571,98.6768385 76.5984144,99.0676692 72.8447853,99.0676692 L51.236097,99.0676692 C47.482468,99.0676692 46.1213114,98.6768385 44.7490407,97.9429401 C43.37677,97.2090417 42.299804,96.1320756 41.5659056,94.7598049 C40.8320072,93.3875343 40.4411765,92.0263777 40.4411765,88.2727486 L40.4411765,33.7272514 C40.4411765,29.9736223 40.8320072,28.6124657 41.5659056,27.2401951 C42.299804,25.8679244 43.37677,24.7909583 44.7490407,24.0570599 C46.1213114,23.3231615 47.482468,22.9323308 51.236097,22.9323308 Z" id="Rectangle" stroke="#979797" stroke-width="2.47669173"></path>
            <path d="M51.3753794,55.8089542 L72.705503,55.8089542 C75.5724384,55.8089542 77.8965488,58.1330646 77.8965488,61 C77.8965488,63.8669354 75.5724384,66.1910458 72.705503,66.1910458 L51.3753794,66.1910458 C48.5084439,66.1910458 46.1843336,63.8669354 46.1843336,61 C46.1843336,58.1330646 48.5084439,55.8089542 51.3753794,55.8089542 Z" id="Rectangle" stroke="#979797" stroke-width="1.23834586"></path>
            <text id="Aa" font-family="LucidaGrande, Lucida Grande" font-size="2.97203008" font-weight="normal" fill="#EDEDED">
                <tspan x="59.8491987" y="62.018929"> Aa</tspan>
            </text>
        </g>
        <use id="Oval" stroke="#FB5454" mask="url(#mask-2)" stroke-width="5.5037594" stroke-linecap="square" stroke-dasharray="1.834586466165413,13.7593984962406" xlink:href="#path-1"></use>
        <path id="Line" d="M121.417293,66.0864662 L119.582707,66.0864662 L119.582,60.417 L89.379,60.417 L89.3797932,66.0864662 L87.5452068,66.0864662 L87.5452068,52.9135338 L89.3797932,52.9135338 L89.379,58.582 L119.582,58.582 L119.582707,52.9135338 L121.417293,52.9135338 L121.417293,66.0864662 Z" fill="#979797" fill-rule="nonzero"></path>
        <text id="100m" font-family="LucidaGrande-Bold, Lucida Grande" font-size="8.007519" font-weight="bold" fill="#979797">
            <tspan x="92.1939924" y="56">100m</tspan>
        </text>
    </g>
</svg>