<?xml version="1.0" encoding="UTF-8"?>
<svg width="120px" height="120px" viewBox="0 0 120 120" version="1.1" xmlns="http://www.w3.org/2000/svg" xmlns:xlink="http://www.w3.org/1999/xlink">
    <title>feature-icon-01</title>
    <defs>
        <linearGradient x1="99.5287915%" y1="0.471208479%" x2="0.69400814%" y2="99.3059919%" id="linearGradient-1">
            <stop stop-color="#FF9942" offset="0%"></stop>
            <stop stop-color="#FF4700" offset="100%"></stop>
        </linearGradient>
    </defs>
    <g id="Page-1" stroke="none" stroke-width="1" fill="none" fill-rule="evenodd">
        <g id="Glyph" fill="url(#linearGradient-1)">
            <path d="M29.4846798,-1.19121635e-15 L90.5153202,1.19121635e-15 C100.767786,-6.92131006e-16 104.485577,1.06749453 108.233726,3.07202609 C111.981874,5.07655766 114.923442,8.01812626 116.927974,11.7662744 C118.932505,15.5144226 120,19.2322143 120,29.4846798 L120,90.5153202 C120,100.767786 118.932505,104.485577 116.927974,108.233726 C114.923442,111.981874 111.981874,114.923442 108.233726,116.927974 C104.485577,118.932505 100.767786,120 90.5153202,120 L29.4846798,120 C19.2322143,120 15.5144226,118.932505 11.7662744,116.927974 C8.01812626,114.923442 5.07655766,111.981874 3.07202609,108.233726 C1.06749453,104.485577 4.61420671e-16,100.767786 -7.94144236e-16,90.5153202 L7.94144236e-16,29.4846798 C-4.61420671e-16,19.2322143 1.06749453,15.5144226 3.07202609,11.7662744 C5.07655766,8.01812626 8.01812626,5.07655766 11.7662744,3.07202609 C15.5144226,1.06749453 19.2322143,6.92131006e-16 29.4846798,-1.19121635e-15 Z" id="background"></path>
        </g>
        <path d="M85.9998848,77.212 L86,101 L35,101 L34.9998848,78.151 L59.180084,90 L85.9998848,77.212 Z M60.5,19 C74.4424285,19 85.7713986,30.9940229 85.9965837,45.8813267 L86,46.3333333 L85.9998848,74.251 L59.180084,84.7043727 L34.9998848,75.019 L35,46.3333333 L35.0034163,45.8813267 C35.2286014,30.9940229 46.5575715,19 60.5,19 Z M60.5,29.1234568 C51.6505494,29.1234568 44.4282488,36.6035567 44.0119648,45.9970474 L44,46.3333333 L43.999,60.5054568 L76.999,60.5054568 L77,46.3333333 C76.7434801,36.7827144 69.4548012,29.1234568 60.5,29.1234568 Z" id="Combined-Shape" fill="#FFFFFF"></path>
    </g>
</svg>