<?xml version="1.0" encoding="UTF-8"?>
<svg width="120px" height="120px" viewBox="0 0 120 120" version="1.1" xmlns="http://www.w3.org/2000/svg" xmlns:xlink="http://www.w3.org/1999/xlink">
    <title>decentral</title>
    <defs>
        <linearGradient x1="99.5287915%" y1="0.471208479%" x2="0.69400814%" y2="99.3059919%" id="linearGradient-1">
            <stop stop-color="#FF9942" offset="0%"></stop>
            <stop stop-color="#FF4700" offset="100%"></stop>
        </linearGradient>
        <path d="M60,0 C68.2842712,0 75,6.71572875 75,15 C75,17.8971879 74.1786318,20.602535 72.7560548,22.8958821 L97.1041179,47.2439452 C99.397465,45.8213682 102.102812,45 105,45 C113.284271,45 120,51.7157288 120,60 C120,68.2842712 113.284271,75 105,75 C102.424147,75 99.9999391,74.3507279 97.8821056,73.2069121 L73.2069121,97.8821056 C74.3507279,99.9999391 75,102.424147 75,105 C75,113.284271 68.2842712,120 60,120 C51.7157288,120 45,113.284271 45,105 C45,102.505673 45.6088233,100.153544 46.6859729,98.0841112 L21.9148926,73.3145456 C19.8457007,74.3913721 17.4939267,75 15,75 C6.71572875,75 0,68.2842712 0,60 C0,51.7157288 6.71572875,45 15,45 C17.8167687,45 20.452199,45.7764025 22.7039606,47.1268773 L47.1268773,22.7039606 C45.7764025,20.452199 45,17.8167687 45,15 C45,6.71572875 51.7157288,0 60,0 Z M54.0922573,28.7918081 L28.7918081,54.0922573 C29.5694147,55.905227 30,57.9023292 30,60 C30,62.4262853 29.4239393,64.7180243 28.401128,66.7459071 L53.2540929,91.598872 C54.1243285,91.1599478 55.043155,90.8032958 56.0003533,90.5391352 L56.0003533,74.4608648 C49.657799,72.7104928 45,66.89919 45,60 C45,51.7157288 51.7157288,45 60,45 C68.2842712,45 75,51.7157288 75,60 C75,66.5306882 70.8264807,72.0865987 65.0010864,74.1460874 L65.0010864,90.8539126 C65.5275739,91.040045 66.0405686,91.2547369 66.5382089,91.4961267 L91.4961267,66.5382089 C90.5375646,64.5620723 90,62.3438136 90,60 C90,57.9860697 90.396893,56.0648388 91.1167285,54.3102575 L65.6897425,28.8832715 C63.9351612,29.603107 62.0139303,30 60,30 C57.9023292,30 55.905227,29.5694147 54.0922573,28.7918081 Z" id="path-2"></path>
    </defs>
    <g id="Page-1" stroke="none" stroke-width="1" fill="none" fill-rule="evenodd">
        <g id="decentral">
            <use fill="url(#linearGradient-1)" xlink:href="#path-2"></use>
            <use fill="#FFFFFF" xlink:href="#path-2"></use>
        </g>
    </g>
</svg>